<svg width="23" height="26" viewBox="0 0 23 26" fill="none" xmlns="http://www.w3.org/2000/svg">
<path fill-rule="evenodd" clip-rule="evenodd" d="M6.21519 19.3913C10.1511 18.7599 12.861 18.8142 16.8021 19.4134C17.0875 19.4588 17.3483 19.6161 17.5363 19.8562C17.7243 20.0963 17.8269 20.403 17.825 20.7196C17.825 21.0227 17.7301 21.3169 17.5588 21.5467C17.2601 21.9474 16.9541 22.3414 16.6411 22.7286H18.1596C18.2551 22.6036 18.3511 22.476 18.4483 22.3466C18.7893 21.8874 18.9754 21.3128 18.975 20.7202C18.975 19.4418 18.1251 18.3401 16.9596 18.1633C12.9254 17.5502 10.1056 17.4915 6.04902 18.1424C4.87142 18.3312 4.02502 19.45 4.02502 20.7373C4.02502 21.3087 4.19465 21.8737 4.51607 22.3315C4.61095 22.4666 4.70467 22.5991 4.79782 22.7292H6.27959C5.98831 22.3463 5.7042 21.9569 5.42744 21.5612C5.26297 21.3243 5.17425 21.0345 5.17502 20.7367C5.17502 20.0567 5.62007 19.4866 6.21519 19.3913Z" fill="#DD3C45"/>
<path fill-rule="evenodd" clip-rule="evenodd" d="M11.5 13.2583C11.9531 13.2583 12.4017 13.1603 12.8203 12.97C13.2388 12.7796 13.6191 12.5006 13.9395 12.1488C14.2599 11.7971 14.514 11.3795 14.6874 10.9199C14.8607 10.4603 14.95 9.96769 14.95 9.47023C14.95 8.97277 14.8607 8.48018 14.6874 8.02059C14.514 7.56099 14.2599 7.1434 13.9395 6.79164C13.6191 6.43988 13.2388 6.16085 12.8203 5.97048C12.4017 5.78012 11.9531 5.68213 11.5 5.68213C10.585 5.68213 9.70749 6.08123 9.06049 6.79164C8.4135 7.50205 8.05002 8.46556 8.05002 9.47023C8.05002 10.4749 8.4135 11.4384 9.06049 12.1488C9.70749 12.8592 10.585 13.2583 11.5 13.2583ZM11.5 14.521C12.72 14.521 13.89 13.9889 14.7527 13.0417C15.6153 12.0945 16.1 10.8098 16.1 9.47023C16.1 8.13068 15.6153 6.84599 14.7527 5.89878C13.89 4.95157 12.72 4.41943 11.5 4.41943C10.28 4.41943 9.10999 4.95157 8.24733 5.89878C7.38466 6.84599 6.90002 8.13068 6.90002 9.47023C6.90002 10.8098 7.38466 12.0945 8.24733 13.0417C9.10999 13.9889 10.28 14.521 11.5 14.521Z" fill="#DD3C45"/>
<path fill-rule="evenodd" clip-rule="evenodd" d="M11.5 23.9913C17.2161 23.9913 21.85 18.9032 21.85 12.627C21.85 6.35074 17.2161 1.2627 11.5 1.2627C5.78393 1.2627 1.15 6.35074 1.15 12.627C1.15 18.9032 5.78393 23.9913 11.5 23.9913ZM11.5 25.254C17.8514 25.254 23 19.6009 23 12.627C23 5.6531 17.8514 0 11.5 0C5.14855 0 0 5.6531 0 12.627C0 19.6009 5.14855 25.254 11.5 25.254Z" fill="#DD3C45"/>
</svg>
